ply
format ascii 1.0
element vertex 12
property float x
property float y
property float z
property float nx
property float ny
property float nz
property uchar diffuse_red
property uchar diffuse_green
property uchar diffuse_blue
end_header
-0.06135822181299549 -0.012323033242309614 -0.046730196789487026 0.7004937172825754 0.1333020077275887 -0.701097652996047 101 110 111 
-0.05105082633526051 -0.0009476899874405968 -0.05351400474612242 0.40233475252642126 0.5102316263494646 -0.7601243802308133 107 114 120 
-0.04951774424953742 0.00849655348854292 -0.05218306133604083 0.3903541522871496 0.04705050154908974 -0.9194609949836592 114 119 125 
-0.06101980198188563 -0.012101462853613276 -0.0479478553319356 0.3176785765978204 -0.3854241839637147 -0.8663302507336639 98 106 109 
-0.04995523278163361 -9.754206931045272e-06 -0.05437438785533594 0.5955776319081401 0.34227743666057486 -0.7267275413486272 106 110 117 
-0.05208488906557779 0.006535827853030804 -0.04723040495880536 0.5978336546983071 0.673923201856886 -0.4340759317901301 108 113 119 
-0.05065161116264731 -0.0002510745617105906 -0.05390195371036712 0.12157966295527328 0.13040232498478754 -0.9839777335033091 105 113 116 
-0.051731321201613514 0.007165695910739877 -0.04859846938164852 -0.06703685095571534 0.41859506616426656 -0.9056946038225564 107 113 115 
-0.06182193459368609 -0.012721079261581576 -0.04593043024422884 0.3060313905312198 0.5506816662398286 -0.776590607428565 101 109 113 
-0.0508691934078352 0.00731946228822239 -0.048834608910916705 0.6475170621554214 0.22505096196754495 -0.7280607431307985 112 117 121 
-0.009599835970039581 -0.008029044635244544 -0.038273080457393846 0.20743720856770448 -0.4203066000942898 -0.8833519387211214 126 135 143 
-0.010802765098651171 0.036582418025980896 -0.039243309889230776 0.598972882818215 -0.1534448977386711 -0.7859292499496146 11 14 21 
