ply
format ascii 1.0
element vertex 10
property float x
property float y
property float z
property float nx
property float ny
property float nz
property uchar diffuse_red
property uchar diffuse_green
property uchar diffuse_blue
end_header
0.001727762539972163 0.06308345787887817 -0.020453625376199817 0.48250823619772165 0.17662109883087976 -0.8578982640343439 112 130 128 
-0.06038784939892435 -0.012170745269825803 -0.048476933211067254 0.4718775288271786 0.2734158983595318 -0.8381968665187692 17 25 33 
-0.05059976634308472 -0.0006855856980928548 -0.05435865631969646 0.2406333232756793 0.43390028526156665 -0.8682308467234798 78 82 90 
-0.0407676066427206 0.024526991362242404 -0.052210194907581345 0.18011659214510842 0.9138867293661349 -0.36382371570507743 61 65 71 
-0.013424849174452391 0.013582911588697373 -0.038279468039386255 0.7348136113270409 0.006284112855291402 -0.6782391118084828 41 47 48 
-0.05218772917697502 0.006761823580037271 -0.047137064316240554 0.02548631439451582 0.21314508011570815 -0.9766874914640034 81 92 102 
-0.008384600936800619 -0.007202973331076201 -0.04035862904105285 0.31860191782832115 0.03230235427498304 -0.9473373353466773 99 107 110 
-0.009592729157337236 0.0373760560921673 -0.04201700206363457 0.1784356656294351 0.39474730566438876 -0.9012957161559033 114 125 128 
-0.04197933629369244 0.02379677887781298 -0.049832855318125 -0.014089725009046858 0.8011771257618603 -0.5982601288256 66 72 75 
-0.011456746089174637 0.014479953611781695 -0.04096685735873833 0.16585413594393345 -0.4179401879528029 -0.8932060127978931 57 63 64 
